<?xml version="1.0" encoding="UTF-8" standalone="no"?>
<!DOCTYPE svg PUBLIC "-//W3C//DTD SVG 1.1//EN"
 "http://www.w3.org/Graphics/SVG/1.1/DTD/svg11.dtd">
<!-- Generated by graphviz version 9.0.0 (0)
 -->
<!-- Pages: 1 -->
<svg width="2430pt" height="548pt"
 viewBox="0.00 0.00 2430.37 548.00" xmlns="http://www.w3.org/2000/svg" xmlns:xlink="http://www.w3.org/1999/xlink">
<g id="graph0" class="aeonik" transform="scale(1 1) rotate(0) translate(4 544)">
<polygon fill="white" stroke="none" points="-4,4 -4,-544 2426.37,-544 2426.37,4 -4,4"/>
<!-- aeonik.aeonik/generate&#45;aeonik -->
<g id="node1" class="node">
<title>aeonik.graph/generate&#45;aeonik</title>
<ellipse fill="none" stroke="black" cx="1188.36" cy="-270" rx="156.96" ry="18"/>
<text text-anchor="middle" x="1188.36" y="-265.32" font-family="Times,serif" font-size="14.00">aeonik.graph/generate&#45;aeonik</text>
</g>
<!-- thomasa.morpheus.core/lint&#45;analysis -->
<g id="node2" class="node">
<title>thomasa.morpheus.core/lint&#45;analysis</title>
<ellipse fill="none" stroke="black" cx="195.36" cy="-18" rx="195.36" ry="18"/>
<text text-anchor="middle" x="195.36" y="-13.32" font-family="Times,serif" font-size="14.00">thomasa.morpheus.core/lint&#45;analysis</text>
</g>
<!-- aeonik.aeonik/generate&#45;aeonik&#45;&gt;thomasa.morpheus.core/lint&#45;analysis -->
<g id="edge1" class="edge">
<title>aeonik.graph/generate&#45;aeonik&#45;&gt;thomasa.morpheus.core/lint&#45;analysis</title>
<path fill="none" stroke="black" d="M1125.11,-253.08C950.24,-209.05 460.69,-85.8 271.41,-38.15"/>
<polygon fill="black" stroke="black" points="272.48,-34.81 261.93,-35.76 270.77,-41.59 272.48,-34.81"/>
</g>
<!-- ubergraph.core/viz&#45;aeonik -->
<g id="node3" class="node">
<title>ubergraph.core/viz&#45;aeonik</title>
<ellipse fill="none" stroke="black" cx="601.36" cy="-18" rx="138.54" ry="18"/>
<text text-anchor="middle" x="601.36" y="-13.32" font-family="Times,serif" font-size="14.00">ubergraph.core/viz&#45;aeonik</text>
</g>
<!-- aeonik.aeonik/generate&#45;aeonik&#45;&gt;ubergraph.core/viz&#45;aeonik -->
<g id="edge2" class="edge">
<title>aeonik.graph/generate&#45;aeonik&#45;&gt;ubergraph.core/viz&#45;aeonik</title>
<path fill="none" stroke="black" d="M1148.94,-252.21C1045.34,-208.09 765.58,-88.94 651.16,-40.21"/>
<polygon fill="black" stroke="black" points="652.58,-37.01 642.01,-36.31 649.84,-43.45 652.58,-37.01"/>
</g>
<!-- ubergraph.core/multidigraph -->
<g id="node4" class="node">
<title>ubergraph.core/multidigraph</title>
<ellipse fill="none" stroke="black" cx="968.36" cy="-18" rx="156.96" ry="18"/>
<text text-anchor="middle" x="968.36" y="-13.32" font-family="Times,serif" font-size="14.00">ubergraph.core/multidigraph</text>
</g>
<!-- aeonik.aeonik/generate&#45;aeonik&#45;&gt;ubergraph.core/multidigraph -->
<g id="edge3" class="edge">
<title>aeonik.graph/generate&#45;aeonik&#45;&gt;ubergraph.core/multidigraph</title>
<path fill="none" stroke="black" d="M1173.24,-251.82C1135.33,-208.73 1036.04,-95.91 991.08,-44.81"/>
<polygon fill="black" stroke="black" points="993.82,-42.63 984.59,-37.44 988.57,-47.26 993.82,-42.63"/>
</g>
<!-- thomasa.morpheus.core/var&#45;deps&#45;aeonik -->
<g id="node6" class="node">
<title>thomasa.morpheus.core/var&#45;deps&#45;aeonik</title>
<ellipse fill="none" stroke="black" cx="1408.36" cy="-18" rx="210.62" ry="18"/>
<text text-anchor="middle" x="1408.36" y="-13.32" font-family="Times,serif" font-size="14.00">thomasa.morpheus.core/var&#45;deps&#45;aeonik</text>
</g>
<!-- aeonik.aeonik/generate&#45;aeonik&#45;&gt;thomasa.morpheus.core/var&#45;deps&#45;aeonik -->
<g id="edge4" class="edge">
<title>aeonik.graph/generate&#45;aeonik&#45;&gt;thomasa.morpheus.core/var&#45;deps&#45;aeonik</title>
<path fill="none" stroke="black" d="M1203.48,-251.82C1241.4,-208.73 1340.68,-95.91 1385.65,-44.81"/>
<polygon fill="black" stroke="black" points="1388.16,-47.26 1392.13,-37.44 1382.9,-42.63 1388.16,-47.26"/>
</g>
<!-- ubergraph.core/remove&#45;nodes -->
<g id="node8" class="node">
<title>ubergraph.core/remove&#45;nodes</title>
<ellipse fill="none" stroke="black" cx="1852.36" cy="-18" rx="161.69" ry="18"/>
<text text-anchor="middle" x="1852.36" y="-13.32" font-family="Times,serif" font-size="14.00">ubergraph.core/remove&#45;nodes</text>
</g>
<!-- aeonik.aeonik/generate&#45;aeonik&#45;&gt;ubergraph.core/remove&#45;nodes -->
<g id="edge5" class="edge">
<title>aeonik.graph/generate&#45;aeonik&#45;&gt;ubergraph.core/remove&#45;nodes</title>
<path fill="none" stroke="black" d="M1232.7,-252.31C1350.01,-208.14 1668.32,-88.29 1797.14,-39.79"/>
<polygon fill="black" stroke="black" points="1798.37,-43.07 1806.49,-36.27 1795.9,-36.52 1798.37,-43.07"/>
</g>
<!-- thomasa.morpheus.core/&#45;&gt;vars -->
<g id="node10" class="node">
<title>thomasa.morpheus.core/&#45;&gt;vars</title>
<ellipse fill="none" stroke="black" cx="2254.36" cy="-18" rx="168" ry="18"/>
<text text-anchor="middle" x="2254.36" y="-13.32" font-family="Times,serif" font-size="14.00">thomasa.morpheus.core/&#45;&gt;vars</text>
</g>
<!-- aeonik.aeonik/generate&#45;aeonik&#45;&gt;thomasa.morpheus.core/&#45;&gt;vars -->
<g id="edge6" class="edge">
<title>aeonik.graph/generate&#45;aeonik&#45;&gt;thomasa.morpheus.core/&#45;&gt;vars</title>
<path fill="none" stroke="black" d="M1255.45,-253.27C1443.38,-209.19 1974.41,-84.66 2175.69,-37.45"/>
<polygon fill="black" stroke="black" points="2176.34,-40.89 2185.28,-35.2 2174.74,-34.08 2176.34,-40.89"/>
</g>
<!-- clojure.tools.cli/parse&#45;opts -->
<g id="node5" class="node">
<title>clojure.tools.cli/parse&#45;opts</title>
<ellipse fill="none" stroke="black" cx="1894.36" cy="-270" rx="143.28" ry="18"/>
<text text-anchor="middle" x="1894.36" y="-265.32" font-family="Times,serif" font-size="14.00">clojure.tools.cli/parse&#45;opts</text>
</g>
<!-- aeonik.aeonik/&#45;main -->
<g id="node7" class="node">
<title>aeonik.graph/&#45;main</title>
<ellipse fill="none" stroke="black" cx="1548.36" cy="-522" rx="107.5" ry="18"/>
<text text-anchor="middle" x="1548.36" y="-517.33" font-family="Times,serif" font-size="14.00">aeonik.graph/&#45;main</text>
</g>
<!-- aeonik.aeonik/&#45;main&#45;&gt;aeonik.aeonik/generate&#45;aeonik -->
<g id="edge7" class="edge">
<title>aeonik.graph/&#45;main&#45;&gt;aeonik.graph/generate&#45;aeonik</title>
<path fill="none" stroke="black" d="M1523.9,-504.01C1461.05,-460.36 1293.8,-344.22 1221.94,-294.32"/>
<polygon fill="black" stroke="black" points="1224.31,-291.7 1214.1,-288.87 1220.32,-297.45 1224.31,-291.7"/>
</g>
<!-- aeonik.aeonik/&#45;main&#45;&gt;clojure.tools.cli/parse&#45;opts -->
<g id="edge8" class="edge">
<title>aeonik.graph/&#45;main&#45;&gt;clojure.tools.cli/parse&#45;opts</title>
<path fill="none" stroke="black" d="M1571.87,-504.01C1632.16,-460.45 1792.37,-344.69 1861.67,-294.63"/>
<polygon fill="black" stroke="black" points="1863.54,-297.59 1869.59,-288.9 1859.44,-291.92 1863.54,-297.59"/>
</g>
<!-- aeonik.aeonik/cli&#45;options -->
<g id="node11" class="node">
<title>aeonik.graph/cli&#45;options</title>
<ellipse fill="none" stroke="black" cx="1548.36" cy="-270" rx="131.18" ry="18"/>
<text text-anchor="middle" x="1548.36" y="-265.32" font-family="Times,serif" font-size="14.00">aeonik.graph/cli&#45;options</text>
</g>
<!-- aeonik.aeonik/&#45;main&#45;&gt;aeonik.aeonik/cli&#45;options -->
<g id="edge9" class="edge">
<title>aeonik.graph/&#45;main&#45;&gt;aeonik.graph/cli&#45;options</title>
<path fill="none" stroke="black" d="M1548.36,-503.82C1548.36,-461.54 1548.36,-352.09 1548.36,-299.73"/>
<polygon fill="black" stroke="black" points="1551.86,-299.82 1548.36,-289.82 1544.86,-299.82 1551.86,-299.82"/>
</g>
<!-- aeonik.aeonik/ -->
<g id="node9" class="node">
<title>aeonik.graph/</title>
<ellipse fill="none" stroke="black" cx="1894.36" cy="-522" rx="79.62" ry="18"/>
<text text-anchor="middle" x="1894.36" y="-517.33" font-family="Times,serif" font-size="14.00">aeonik.graph/</text>
</g>
<!-- aeonik.aeonik/&#45;&gt;clojure.tools.cli/parse&#45;opts -->
<g id="edge10" class="edge">
<title>aeonik.graph/&#45;&gt;clojure.tools.cli/parse&#45;opts</title>
<path fill="none" stroke="black" d="M1894.36,-503.82C1894.36,-461.54 1894.36,-352.09 1894.36,-299.73"/>
<polygon fill="black" stroke="black" points="1897.86,-299.82 1894.36,-289.82 1890.86,-299.82 1897.86,-299.82"/>
</g>
</g>
</svg>
